# File created by Blade
# Date/Time:  Thu Jan 22 19:08:58 2015
# Frame Rate: 120.000 fps
#------------------------------------------------------
:FULLY-SPECIFIED
:DEGREES
2174
root -2.401569 33.224516 -0.144750 6.048403 -2.535471 2.763183
RightUpLeg 1.371431 -9.394322 -3.837939
RightLeg -2.153992 -0.000000 0.000000
RightFoot -9.421113 -4.242900 5.342777
RightToeBase 5.554511 -0.000000 -0.000000
LeftUpLeg 1.240447 6.647511 3.026181
LeftLeg 0.330043 -0.000000 -0.000000
LeftFoot -8.598410 -0.828287 -12.021801
LeftToeBase 7.015644 -0.000000 -0.000000
Spine -11.302933 -3.352201 -2.062214
RightShoulder -23.445158 18.168640 -60.355886
RightArm 64.055698 51.471231 34.799150
RightForeArm -16.895122 -0.000000 22.232360
RightHand 12.033696 0.000000 -3.400291
RightHandThumb1 -24.326973 -0.000000 -32.862282
LeftShoulder -28.383125 -16.640051 57.637917
LeftArm 74.620632 -50.847205 -34.975702
LeftForeArm 25.799020 -0.000000 18.854835
LeftHand -3.803970 -0.000000 -1.375665
LeftHandThumb1 -26.253704 0.000000 33.147579
Head -0.846634 8.682583 2.045686
2175
root -2.403368 33.224725 -0.148572 6.062077 -2.510906 2.769538
RightUpLeg 1.362896 -9.400155 -3.836641
RightLeg -2.165684 -0.000000 0.000000
RightFoot -9.416421 -4.253049 5.347802
RightToeBase 5.500212 -0.000000 -0.000000
LeftUpLeg 1.221960 6.659237 3.025848
LeftLeg 0.316390 -0.000000 -0.000000
LeftFoot -8.573570 -0.860921 -12.020867
LeftToeBase 7.015063 -0.000000 -0.000000
Spine -11.299307 -3.357297 -2.056367
RightShoulder -23.491543 18.206200 -60.388837
RightArm 64.016911 51.376902 34.798065
RightForeArm -16.919618 -0.000000 22.223416
RightHand 12.086539 -0.000000 -3.282541
RightHandThumb1 -24.326973 -0.000000 -32.862282
LeftShoulder -28.387650 -16.676929 57.650499
LeftArm 74.528215 -50.822838 -34.922930
LeftForeArm 25.753994 -0.000000 18.863530
LeftHand -3.701114 -0.000000 -1.318666
LeftHandThumb1 -26.253704 0.000000 33.147579
Head -0.870913 8.671768 2.051938
2176
root -2.404794 33.224588 -0.151885 6.077269 -2.483810 2.774029
RightUpLeg 1.357087 -9.407735 -3.832920
RightLeg -2.183852 -0.000000 0.000000
RightFoot -9.417416 -4.277768 5.353509
RightToeBase 5.510408 -0.000000 -0.000000
LeftUpLeg 1.207278 6.664827 3.025695
LeftLeg 0.292424 -0.000000 -0.000000
LeftFoot -8.549664 -0.891938 -12.025689
LeftToeBase 7.025640 -0.000000 -0.000000
Spine -11.302867 -3.367372 -2.050207
RightShoulder -23.496020 18.192624 -60.353569
RightArm 64.012333 51.340578 34.718132
RightForeArm -16.844539 -0.000000 22.130411
RightHand 12.092177 -0.000000 -3.531538
RightHandThumb1 -24.326973 -0.000000 -32.862282
LeftShoulder -28.391905 -16.701344 57.667790
LeftArm 74.490319 -50.803272 -34.918530
LeftForeArm 25.714711 -0.000000 18.838504
LeftHand -3.636823 -0.000000 -1.278561
LeftHandThumb1 -26.253704 0.000000 33.147579
Head -0.871612 8.660397 2.069111
2177
root -2.405844 33.224873 -0.155673 6.092994 -2.461428 2.770689
RightUpLeg 1.344445 -9.418570 -3.823824
RightLeg -2.193737 -0.000000 0.000000
RightFoot -9.406834 -4.277497 5.351191
RightToeBase 5.518830 -0.000000 -0.000000
LeftUpLeg 1.193065 6.672736 3.031408
LeftLeg 0.264429 -0.000000 -0.000000
LeftFoot -8.524629 -0.915548 -12.032134
LeftToeBase 7.029254 -0.000000 -0.000000
Spine -11.291275 -3.368989 -2.021115
RightShoulder -23.540752 18.135402 -60.360354
RightArm 64.091881 51.360477 34.833373
RightForeArm -16.896797 0.000000 22.136278
RightHand 12.115880 -0.000000 -3.474253
RightHandThumb1 -24.326973 -0.000000 -32.862282
LeftShoulder -28.422724 -16.741012 57.669032
LeftArm 74.434671 -50.769554 -34.884507
LeftForeArm 25.685872 -0.000000 18.813713
LeftHand -3.590644 -0.000000 -1.224653
LeftHandThumb1 -26.253704 0.000000 33.147579
Head -0.860584 8.707703 2.091153
2178
root -2.407134 33.224798 -0.158499 6.106514 -2.437434 2.777273
RightUpLeg 1.338329 -9.419930 -3.824469
RightLeg -2.209170 -0.000000 0.000000
RightFoot -9.405064 -4.293611 5.367245
RightToeBase 5.543175 -0.000000 -0.000000
LeftUpLeg 1.179493 6.677363 3.028191
LeftLeg 0.246062 -0.000000 -0.000000
LeftFoot -8.504913 -0.937176 -12.019107
LeftToeBase 7.036571 -0.000000 -0.000000
Spine -11.307616 -3.381596 -2.022374
RightShoulder -23.511066 18.121191 -60.327073
RightArm 64.070418 51.363694 34.830522
RightForeArm -16.917904 -0.000000 22.136097
RightHand 12.110447 -0.000000 -3.427450
RightHandThumb1 -24.326973 -0.000000 -32.862282
LeftShoulder -28.411550 -16.759078 57.689461
LeftArm 74.399623 -50.740063 -34.868811
LeftForeArm 25.693527 -0.000000 18.767241
LeftHand -3.562435 -0.000000 -1.126738
LeftHandThumb1 -26.253704 0.000000 33.147579
Head -0.817083 8.709399 2.130292
